<svg xmlns="http://www.w3.org/2000/svg" xmlns:xlink="http://www.w3.org/1999/xlink" version="1.1" x="0px" y="0px" viewBox="0 0 100 100" enable-background="new 0 0 100 100" xml:space="preserve">

    <symbol id="icon-fibonacci">
        <path d="M60.033,21.233C29.688,21.233,5,45.921,5,76.267c0,1.381,1.119,2.5,2.5,2.5s2.5-1.119,2.5-2.5  c0-27.588,22.445-50.033,50.033-50.033C76.557,26.233,90,39.677,90,56.201c0,9.686-7.88,17.566-17.566,17.566  c-5.459,0-9.901-4.442-9.901-9.901c0-2.848,2.317-5.165,5.165-5.165c1.233,0,2.237,1.003,2.237,2.237c0,1.381,1.119,2.5,2.5,2.5  s2.5-1.119,2.5-2.5c0-3.99-3.247-7.237-7.237-7.237c-5.605,0-10.165,4.56-10.165,10.165c0,8.217,6.685,14.901,14.901,14.901  C84.877,78.767,95,68.644,95,56.201C95,36.919,79.314,21.233,60.033,21.233z"/>
    </symbol>
</svg>